<?xml version="1.0" standalone="no"?>
<!DOCTYPE svg PUBLIC "-//W3C//DTD SVG 20010904//EN"
 "http://www.w3.org/TR/2001/REC-SVG-20010904/DTD/svg10.dtd">
<svg version="1.0" xmlns="http://www.w3.org/2000/svg"
 width="3717.000000pt" height="1637.000000pt" viewBox="0 0 3717.000000 1637.000000"
 preserveAspectRatio="xMidYMid meet">
<metadata>
Created by potrace 1.13, written by Peter Selinger 2001-2015
</metadata>
<g transform="translate(0.000000,1637.000000) scale(0.100000,-0.100000)"
fill="#000000" stroke="none">
<path d="M17116 16163 c-70 -71 -133 -138 -141 -149 -22 -30 -18 -70 9 -92 14
-10 37 -42 53 -70 35 -64 152 -200 255 -297 71 -67 83 -84 114 -160 19 -46 34
-96 34 -109 0 -14 -15 -58 -34 -98 -43 -97 -204 -368 -221 -374 -19 -8 -73 22
-123 68 -50 46 -97 68 -145 68 -49 0 -143 -26 -221 -61 -66 -31 -71 -31 -162
-25 l-93 7 -98 -52 c-70 -37 -114 -69 -156 -112 -31 -33 -59 -58 -61 -56 -2 2
-9 60 -15 129 -6 69 -15 141 -21 160 -5 20 -41 70 -80 115 -82 92 -118 160
-160 300 -86 288 -227 446 -438 491 -80 16 -146 17 -283 4 -180 -18 -279 -57
-364 -144 -62 -65 -116 -156 -150 -255 -15 -42 -41 -110 -58 -151 -31 -72 -32
-80 -31 -210 1 -199 10 -231 90 -311 l66 -67 19 -163 c10 -90 19 -170 19 -176
0 -7 9 -22 20 -33 19 -19 22 -19 57 -5 42 18 46 16 47 -27 1 -27 6 -34 31 -42
39 -13 37 -12 40 -38 1 -13 3 -26 4 -30 0 -5 14 -8 29 -8 33 0 52 -16 52 -44
0 -40 22 -99 45 -122 32 -32 67 -30 132 6 29 17 53 28 53 24 0 -7 -46 -107
-116 -251 -44 -90 -64 -120 -101 -150 -102 -83 -129 -112 -198 -213 -41 -58
-82 -113 -93 -123 -20 -18 -20 -17 -33 20 -7 21 -13 85 -13 143 -1 102 0 107
36 175 20 39 56 93 81 120 54 61 97 123 97 142 0 7 -23 36 -51 63 -48 46 -51
53 -46 86 5 30 2 40 -21 62 -15 15 -32 40 -38 57 -7 20 -20 32 -41 37 -50 13
-56 28 -39 93 8 31 12 63 10 70 -8 19 -67 25 -180 18 -145 -9 -145 -9 -182 89
-17 46 -41 97 -51 115 -46 74 -172 120 -298 109 -212 -19 -390 -110 -548 -278
-157 -167 -197 -335 -129 -548 30 -93 66 -158 148 -258 l63 -79 -31 -42 c-42
-58 -43 -135 -3 -203 55 -94 192 -195 331 -244 98 -35 206 -1 274 85 22 28 42
56 45 63 7 19 70 -44 95 -96 12 -24 25 -70 28 -103 l6 -59 -48 -36 c-27 -20
-127 -75 -223 -123 -96 -48 -204 -106 -240 -130 -140 -93 -169 -221 -95 -428
32 -88 51 -125 122 -245 l55 -92 -40 -88 c-68 -147 -78 -186 -77 -297 0 -83 5
-111 26 -167 34 -87 78 -154 164 -252 141 -161 302 -283 397 -301 83 -16 81
-20 -75 -162 -340 -310 -417 -425 -453 -670 -7 -54 -21 -194 -30 -312 -23
-306 -48 -429 -141 -684 -154 -424 -407 -907 -581 -1115 -99 -116 -294 -221
-519 -277 -169 -42 -333 -120 -469 -222 -127 -96 -323 -290 -575 -568 -334
-368 -468 -493 -595 -552 -58 -27 -67 -28 -270 -33 -178 -4 -215 -8 -238 -22
-30 -20 -86 -100 -163 -232 -50 -86 -55 -90 -160 -160 -126 -83 -138 -97 -108
-127 l21 -21 119 53 c147 65 197 72 242 34 43 -36 43 -87 1 -192 -40 -98 -47
-187 -25 -303 31 -167 90 -245 262 -347 127 -76 172 -80 202 -19 12 23 10 40
-13 132 -18 68 -25 116 -21 138 10 50 246 394 415 601 222 273 346 378 681
575 213 125 491 301 799 504 299 197 316 208 411 241 167 60 258 123 391 273
102 114 128 109 89 -20 -53 -176 -130 -273 -338 -430 -190 -143 -372 -320
-372 -363 0 -43 463 123 805 289 130 63 221 130 543 397 34 28 65 50 67 47 7
-6 -123 -155 -258 -295 -68 -71 -175 -193 -239 -273 -131 -164 -161 -197 -272
-294 -83 -74 -184 -193 -215 -255 -12 -23 -17 -49 -14 -73 6 -44 25 -21 -335
-399 -219 -229 -302 -331 -302 -371 0 -31 38 -76 83 -101 39 -20 55 -22 207
-22 195 1 282 17 410 76 125 58 149 78 270 225 61 73 124 144 141 159 l31 26
37 -22 c90 -55 120 -69 175 -83 32 -9 62 -13 67 -11 4 3 45 54 90 113 255 330
919 1145 1167 1432 l65 74 -7 -51 c-17 -128 -61 -203 -174 -290 -117 -91 -199
-174 -222 -226 -24 -53 -26 -165 -4 -257 12 -52 14 -95 8 -211 -6 -146 -6
-147 16 -154 29 -9 33 -3 70 116 28 90 64 149 90 149 17 0 55 -45 107 -127 82
-128 107 -157 143 -170 21 -7 99 -12 197 -12 l162 -1 20 26 c23 30 27 83 9
117 -6 12 -35 49 -64 81 -98 108 -110 164 -79 358 8 51 21 158 30 238 21 198
94 508 122 517 12 4 338 -340 490 -517 108 -125 172 -178 330 -272 67 -40 103
-68 103 -79 0 -36 -43 -152 -63 -173 -13 -13 -62 -33 -122 -50 -214 -60 -278
-82 -288 -97 -16 -25 0 -67 32 -84 52 -26 202 -47 391 -52 l185 -6 75 31 c41
16 125 51 185 76 142 59 240 83 364 92 l99 7 7 -79 c4 -44 12 -85 17 -91 12
-15 58 -16 173 -6 l78 6 42 92 c77 165 97 232 92 300 -3 33 -13 85 -24 116
-39 114 -76 158 -367 437 -154 147 -388 373 -519 502 -209 205 -236 235 -218
242 15 5 21 16 21 40 0 47 -32 104 -106 188 -98 111 -104 127 -104 265 0 64 7
173 15 242 14 112 14 136 0 243 -8 65 -17 125 -20 132 -6 15 53 107 135 213
123 160 384 525 475 665 122 190 227 392 305 588 l12 32 77 0 c42 0 94 5 116
11 62 17 206 84 323 151 163 92 501 324 502 344 0 6 -23 51 -52 100 -68 117
-211 430 -358 784 -150 361 -187 450 -247 595 -220 538 -224 548 -240 684 -32
256 -20 634 22 738 16 38 72 76 395 273 548 333 646 397 681 440 40 47 63 129
54 188 -11 75 -72 275 -119 392 -24 59 -67 186 -95 281 -65 225 -98 314 -167
451 -64 127 -118 212 -170 263 -31 31 -41 35 -86 35 -29 0 -91 -10 -139 -21
l-87 -22 -144 63 c-78 34 -183 79 -233 100 -89 37 -90 37 -93 75 l-3 38 -70
-6 c-83 -7 -99 -2 -99 28 0 12 -6 28 -14 34 -12 10 -37 -11 -140 -116z m629
-1080 c10 -27 36 -84 57 -127 21 -44 38 -94 38 -112 0 -39 -33 -82 -76 -100
-37 -16 -194 -19 -194 -5 0 5 9 31 21 58 12 26 34 84 49 128 47 135 75 205 81
205 4 0 14 -21 24 -47z"/>
<path d="M30480 16129 c-96 -10 -200 -37 -325 -85 -95 -36 -104 -42 -191 -128
-72 -72 -99 -108 -130 -171 l-39 -79 0 -151 c1 -179 9 -205 125 -405 40 -69
102 -174 137 -235 70 -119 67 -106 44 -240 -8 -43 -8 -89 0 -162 11 -95 10
-103 -8 -130 -28 -39 -96 -175 -137 -276 -72 -173 -101 -456 -93 -900 7 -399
42 -796 103 -1172 31 -191 34 -226 25 -269 -15 -66 -86 -221 -159 -348 -33
-57 -124 -227 -202 -378 -167 -322 -211 -397 -339 -585 -372 -547 -1024 -1322
-1345 -1599 -83 -72 -272 -173 -406 -218 -131 -43 -406 -159 -456 -192 -62
-42 -88 -90 -79 -146 18 -107 157 -224 324 -274 74 -22 191 -20 271 3 425 124
826 386 1275 836 228 227 380 407 595 703 57 78 110 142 118 142 8 0 11 -7 8
-17 -40 -139 -48 -248 -50 -673 -2 -463 -6 -495 -82 -579 -50 -56 -191 -174
-350 -293 -360 -271 -433 -352 -892 -993 -139 -193 -150 -205 -252 -295 -81
-71 -103 -88 -257 -204 -88 -65 -103 -81 -103 -104 0 -16 6 -37 14 -48 13 -17
10 -23 -37 -65 -32 -29 -70 -79 -100 -130 -26 -46 -70 -112 -97 -147 -28 -35
-50 -67 -50 -71 0 -10 99 -124 208 -241 l79 -84 39 32 c21 18 44 32 50 32 14
0 24 -23 24 -52 0 -35 59 -169 105 -238 131 -198 420 -386 646 -421 125 -19
260 6 274 51 9 27 -9 49 -82 104 -48 36 -80 71 -121 134 -59 91 -189 332 -198
369 -6 21 31 163 41 163 2 0 60 -22 127 -49 171 -69 169 -69 212 -31 36 32 55
62 203 310 83 139 218 356 353 565 42 66 144 224 225 350 256 398 307 475 315
475 25 0 27 -141 5 -292 -8 -57 -22 -174 -30 -261 -13 -141 -18 -168 -51 -245
-112 -268 -146 -384 -130 -446 7 -30 59 -66 94 -66 12 0 26 -8 29 -17 4 -10
-4 -80 -17 -158 -20 -111 -24 -166 -21 -270 2 -71 4 -190 5 -264 l1 -134 145
7 c80 3 191 9 248 12 l102 7 0 43 c0 54 5 55 140 18 245 -66 233 -64 485 -71
255 -6 481 6 550 30 60 21 62 76 4 142 -36 40 -61 48 -218 70 -219 31 -303 71
-463 224 l-72 68 13 71 c7 40 17 74 22 78 5 3 29 -9 54 -26 49 -34 122 -69
143 -70 8 0 41 26 75 59 l62 59 79 7 c93 8 133 21 203 64 89 55 155 51 192
-10 10 -17 28 -69 40 -116 25 -104 53 -143 125 -178 51 -25 61 -26 190 -24 75
1 138 0 141 -3 3 -2 -53 -44 -123 -93 -226 -159 -289 -242 -228 -303 l26 -27
358 2 c196 2 379 6 405 9 63 8 98 39 139 122 33 67 186 265 214 276 65 25 -38
-237 -148 -376 -16 -21 -59 -82 -94 -135 -122 -184 -117 -275 14 -275 101 0
317 88 484 197 199 130 250 217 278 470 14 126 29 206 43 223 13 17 47 -16
170 -161 l91 -109 38 40 37 40 -40 79 c-51 101 -75 198 -88 364 -14 170 -41
234 -132 309 -78 65 -125 92 -266 151 -65 28 -123 55 -129 62 -13 14 -48 241
-43 276 7 43 29 46 105 15 l69 -29 230 1 c189 0 281 6 518 32 158 18 314 32
347 32 61 0 276 -29 415 -55 44 -9 118 -18 166 -22 115 -8 121 3 43 73 -41 37
-53 53 -41 54 10 0 73 -16 140 -37 117 -35 129 -36 307 -41 124 -3 200 0 229
8 57 15 131 85 181 170 45 76 54 85 95 94 49 11 124 -10 273 -74 160 -68 218
-81 256 -57 13 9 56 67 94 129 88 141 150 225 266 356 179 203 216 260 216
330 0 79 -40 123 -187 204 l-73 40 0 72 c0 94 -21 154 -77 216 -71 79 -84 83
-216 71 -159 -15 -428 -13 -592 4 -327 35 -494 65 -850 154 -165 41 -701 201
-726 217 -4 2 -172 60 -374 129 -439 149 -494 174 -592 272 -144 145 -214 373
-243 788 -21 297 -51 475 -111 652 -29 87 -55 138 -157 313 -92 156 -107 207
-107 365 1 93 6 150 19 199 25 93 133 397 146 410 9 9 53 2 110 -18 9 -3 22 6
35 26 14 23 31 34 57 40 45 9 189 80 207 102 7 8 15 35 18 58 3 24 19 61 35
83 l28 41 -7 154 -8 154 -57 30 -57 29 34 66 c49 99 61 152 95 416 33 262 49
339 84 400 41 69 86 97 181 110 63 10 104 30 235 119 123 83 217 173 248 236
66 137 84 344 42 475 -54 172 -185 351 -299 410 -19 9 -65 40 -102 67 -160
116 -252 143 -319 93 -34 -25 -100 -110 -100 -129 0 -6 -21 -24 -48 -41 -58
-37 -162 -139 -197 -195 -14 -23 -65 -83 -112 -133 -123 -131 -137 -154 -183
-292 -40 -120 -62 -158 -79 -139 -33 35 -265 353 -282 385 -29 58 -18 125 36
209 36 56 43 75 48 137 3 40 11 82 18 94 16 30 6 100 -25 174 -19 43 -26 78
-26 126 0 52 -4 68 -16 73 -22 8 -20 9 -56 -22 -18 -16 -45 -32 -61 -36 -35
-8 -91 -59 -173 -157 -35 -42 -89 -93 -118 -113 -30 -20 -84 -72 -121 -116
-113 -135 -269 -224 -581 -329 -253 -86 -314 -90 -314 -22 0 50 38 73 243 146
105 37 108 43 104 193 -2 100 -6 124 -21 141 -15 17 -16 25 -8 50 8 21 7 39
-1 60 -9 26 -7 37 17 85 27 54 28 57 11 82 -9 14 -30 33 -47 42 -16 10 -50 29
-74 44 l-44 28 0 96 c0 115 -5 128 -102 249 -117 147 -234 258 -293 277 -65
21 -142 27 -235 17z m1579 -1650 c22 -53 57 -156 77 -230 53 -198 72 -255 120
-354 52 -109 84 -227 84 -312 0 -111 -22 -135 -219 -233 l-124 -61 -121 39
c-66 22 -157 46 -201 52 -210 30 -204 27 -216 74 -14 55 -64 143 -166 294
l-83 123 32 77 c45 111 87 149 218 199 130 50 342 148 393 182 52 34 69 71 78
173 5 48 16 104 24 125 l17 38 23 -45 c12 -25 41 -88 64 -141z"/>
<path d="M678 12651 c-14 -15 -31 -44 -38 -62 -18 -45 -17 -45 -40 -24 -16 14
-22 15 -35 5 -17 -14 -35 -72 -35 -117 0 -44 -59 -291 -80 -333 -9 -19 -27
-66 -40 -104 -12 -37 -35 -82 -50 -99 l-28 -32 -73 24 c-100 32 -162 32 -194
0 -27 -27 -39 -68 -27 -87 5 -8 38 -17 73 -22 76 -9 110 -21 129 -46 18 -22
123 -89 208 -134 35 -18 72 -44 82 -58 11 -13 38 -81 61 -150 36 -113 39 -127
25 -138 -21 -15 -20 -33 4 -176 43 -250 51 -332 60 -613 9 -280 39 -687 61
-809 6 -33 37 -149 70 -258 l59 -199 -39 -92 c-102 -240 -178 -549 -217 -882
-33 -279 -2 -1331 47 -1571 10 -51 11 -52 57 -64 128 -33 153 -42 181 -66 42
-35 53 -83 41 -180 -15 -118 -35 -178 -100 -294 -240 -428 -366 -826 -442
-1385 -20 -150 -23 -212 -23 -530 0 -403 -1 -397 77 -594 46 -115 384 -799
657 -1329 l171 -333 7 -103 6 -104 -29 -15 c-16 -8 -74 -24 -128 -37 -131 -29
-205 -56 -233 -82 -34 -32 -29 -56 14 -76 33 -14 85 -17 372 -20 194 -2 367 1
410 7 42 5 150 33 240 61 90 27 167 50 171 50 4 0 10 -17 14 -38 11 -66 10
-66 139 -54 64 6 157 21 208 33 l92 21 -7 74 c-7 79 -58 277 -100 388 -29 77
-50 108 -144 210 -123 134 -191 252 -267 461 -64 177 -89 235 -140 324 -54 94
-105 239 -140 401 -15 70 -37 143 -51 167 -31 54 -114 127 -208 183 -53 31
-78 53 -83 70 -10 37 29 173 92 329 115 280 199 501 272 717 l75 222 111 -81
c178 -131 215 -174 497 -577 185 -265 270 -376 362 -475 132 -142 222 -277
381 -566 108 -197 159 -299 287 -573 80 -171 100 -224 95 -245 -13 -52 -79
-156 -146 -228 -47 -51 -80 -99 -107 -156 -26 -53 -84 -140 -165 -245 -262
-339 -297 -415 -296 -642 0 -88 4 -126 19 -160 l18 -45 67 3 c79 4 166 29 229
66 53 31 71 58 231 366 110 210 365 690 383 720 7 11 30 -5 108 -76 54 -49
118 -103 141 -119 24 -17 45 -37 47 -45 9 -27 25 -211 36 -400 6 -102 15 -201
20 -221 15 -55 52 -103 90 -116 42 -15 152 -8 213 13 99 35 191 124 258 254
30 58 29 115 -5 365 -25 176 -29 196 -66 268 -22 43 -40 86 -40 95 0 10 61 78
135 152 75 74 147 151 161 172 25 35 25 37 8 70 -26 51 -133 203 -238 336 -52
66 -92 123 -88 126 39 40 266 -80 422 -224 35 -32 87 -72 115 -87 l50 -28 290
-6 c267 -5 294 -7 345 -27 92 -37 156 -89 252 -206 102 -125 145 -168 203
-198 48 -25 121 -27 184 -4 24 9 59 16 78 16 53 0 140 -94 235 -255 42 -72 86
-139 98 -150 37 -33 99 -25 225 30 99 43 119 49 201 53 97 5 169 -10 247 -49
l38 -20 -6 -52 c-4 -29 -7 -97 -8 -152 -2 -89 2 -110 30 -195 18 -52 39 -142
48 -200 8 -58 20 -118 26 -133 27 -65 170 -106 323 -92 90 8 117 16 146 45 27
27 27 102 -1 178 -12 31 -46 128 -76 214 -60 170 -61 191 -17 235 31 31 57 28
174 -21 139 -58 270 -89 380 -89 92 -1 98 1 200 47 104 47 176 64 223 52 13
-3 54 -26 91 -52 129 -88 140 -86 340 65 164 124 201 143 276 149 45 3 70 -2
134 -28 49 -19 89 -29 103 -25 36 9 90 62 155 154 92 131 124 167 191 217 34
26 66 50 70 54 5 4 15 38 22 75 21 99 32 112 105 120 33 4 63 11 66 16 3 6
-27 59 -66 120 -71 108 -100 172 -86 186 3 4 38 10 76 14 87 10 110 22 110 57
0 47 -39 100 -239 327 -154 174 -883 908 -1146 1153 -115 107 -262 249 -327
313 -396 401 -680 912 -881 1589 -110 369 -123 520 -88 1050 6 85 15 288 21
450 12 329 26 462 72 660 66 289 41 386 -163 620 -44 51 -89 110 -100 131 -29
58 -58 192 -68 319 -14 169 17 364 146 945 51 230 56 260 55 370 0 146 -24
269 -92 479 -72 226 -144 496 -131 496 4 0 35 -34 70 -76 34 -41 68 -73 74
-71 18 6 26 67 16 121 -5 27 -20 84 -34 128 -14 43 -25 85 -25 93 0 12 20 13
114 8 122 -6 168 3 186 38 18 33 2 49 -51 49 -58 0 -142 30 -191 68 -20 15
-63 61 -96 102 -88 109 -160 160 -249 175 -100 16 -223 -58 -251 -151 -25 -84
-12 -189 37 -311 37 -93 56 -262 71 -638 5 -137 10 -342 11 -455 l0 -205 -55
-190 c-77 -267 -136 -415 -166 -415 -6 0 -15 11 -22 24 -8 20 -5 51 17 153 18
86 29 172 32 263 l6 135 33 28 c19 16 39 37 45 48 10 20 4 21 -64 2 -35 -9
-31 27 7 59 48 40 66 76 66 137 0 55 -13 73 -30 41 -12 -23 -66 -53 -80 -45
-16 10 -12 31 15 81 14 26 25 53 25 61 0 16 -31 73 -40 73 -3 0 -4 -26 -2 -57
3 -55 2 -60 -33 -93 -35 -33 -38 -34 -49 -16 -112 184 -294 399 -365 431 l-40
18 -49 -32 c-27 -17 -52 -31 -57 -31 -4 0 -48 19 -98 41 -82 38 -95 41 -151
37 -67 -6 -128 -32 -164 -71 -15 -16 -40 -27 -66 -31 -100 -15 -283 -126 -344
-210 -35 -48 -37 -54 -43 -155 -5 -85 -11 -117 -32 -162 -15 -30 -31 -78 -36
-105 -6 -28 -25 -73 -45 -103 -20 -29 -36 -58 -36 -65 0 -6 16 -45 35 -85 20
-41 34 -80 31 -86 -2 -7 -30 -34 -61 -60 -42 -36 -59 -45 -67 -37 -28 28 -39
1 -14 -33 9 -12 31 -21 62 -24 64 -8 64 -28 1 -60 l-49 -24 21 -21 c22 -22 86
-28 127 -13 35 12 39 -28 6 -54 l-27 -22 42 7 42 6 35 -54 c42 -65 63 -80 134
-95 70 -15 88 -24 144 -79 63 -61 87 -60 211 3 l96 50 58 -41 c32 -22 67 -57
78 -77 l20 -37 -20 -37 c-24 -46 -97 -101 -190 -147 -106 -52 -190 -76 -300
-86 -116 -10 -202 -38 -303 -98 -81 -48 -213 -144 -293 -214 -69 -59 -138 -91
-261 -122 -168 -43 -268 -51 -461 -37 -264 19 -544 30 -743 31 l-181 0 -7 30
c-6 33 -47 80 -69 80 -18 0 -64 -36 -77 -60 -9 -16 -5 -22 17 -34 27 -15 27
-15 -37 -16 -119 -1 -244 -19 -330 -48 -78 -27 -180 -75 -223 -105 -14 -10
-25 -8 -62 12 -62 33 -97 74 -190 224 -89 144 -187 255 -318 362 l-86 70 -91
208 c-181 412 -185 445 -98 787 38 146 42 178 43 280 0 101 -4 125 -29 200
-73 216 -139 277 -310 287 -97 6 -195 -8 -336 -48 -193 -55 -248 -92 -312
-213 -17 -34 -28 -46 -32 -36 -138 382 -165 447 -211 502 -13 15 -40 77 -60
139 l-37 111 5 231 c4 170 9 249 22 297 40 157 40 220 1 220 -20 0 -21 5 -21
58 0 55 -1 57 -25 54 -39 -4 -62 -35 -81 -109 l-17 -68 -1 108 c-1 102 -10
147 -30 147 -5 0 -20 -13 -33 -29z m3372 -4066 c196 -116 228 -125 462 -125
155 0 195 4 310 27 128 27 144 28 453 28 l320 0 130 47 c72 26 139 48 151 48
38 0 118 -64 290 -235 151 -150 176 -179 208 -245 89 -185 108 -428 49 -620
-10 -31 -37 -80 -65 -115 -221 -280 -446 -597 -555 -780 -200 -338 -722 -1033
-885 -1180 -91 -82 -261 -189 -572 -362 -231 -129 -959 -503 -977 -503 -52 0
-345 638 -553 1202 -85 229 -85 230 -116 638 -25 316 -72 431 -343 824 -160
232 -226 388 -249 587 -17 155 13 416 54 467 7 8 22 10 44 6 21 -4 50 0 78 11
63 24 89 11 173 -83 49 -54 83 -82 122 -100 51 -23 60 -24 160 -18 58 4 147 9
196 10 117 3 166 23 360 152 209 140 222 147 248 140 14 -3 39 3 63 16 21 12
59 25 83 30 24 4 73 21 108 38 70 33 99 69 109 133 8 46 1 47 144 -38z"/>
<path d="M24310 12451 c-93 -29 -178 -108 -233 -217 -36 -72 -97 -243 -97
-272 0 -9 -20 -57 -45 -107 -25 -49 -50 -114 -55 -144 -12 -65 -12 -258 0
-361 4 -41 7 -77 5 -79 -2 -2 -53 15 -112 37 -242 90 -637 194 -811 213 -247
27 -375 -36 -570 -280 -91 -113 -297 -337 -383 -414 -100 -91 -148 -77 -248
72 -54 80 -226 277 -325 371 -36 34 -36 35 -35 115 1 58 -3 91 -15 113 -29 56
-175 151 -233 152 -13 0 -53 19 -90 42 -144 88 -249 122 -373 122 -200 -1
-333 -81 -416 -249 -39 -78 -39 -80 -39 -194 0 -113 1 -117 35 -181 21 -39 65
-95 110 -140 89 -89 290 -242 354 -271 25 -11 107 -33 181 -49 75 -17 149 -37
165 -45 56 -29 149 -158 171 -238 9 -33 5 -56 -26 -169 -37 -130 -54 -254 -55
-396 0 -96 -34 -250 -74 -337 -29 -62 -49 -86 -181 -210 -81 -77 -173 -173
-205 -215 -76 -100 -92 -113 -227 -196 -217 -132 -252 -173 -380 -434 -52
-107 -106 -210 -120 -228 -14 -18 -115 -108 -226 -201 -390 -324 -556 -496
-582 -603 -5 -20 0 -40 19 -72 48 -82 33 -141 -96 -361 -136 -233 -162 -303
-125 -334 8 -6 60 -15 116 -20 69 -5 106 -13 113 -22 5 -8 7 -36 4 -64 -4 -36
0 -61 13 -91 45 -99 205 -204 310 -204 90 1 138 29 319 192 46 41 109 90 140
109 53 32 61 34 147 34 88 -1 92 -2 210 -57 148 -69 190 -81 285 -81 94 1 172
29 243 87 99 81 182 231 207 379 14 81 1 349 -30 587 -33 257 -50 485 -50 670
0 296 26 400 141 570 88 130 168 293 223 449 22 65 43 120 46 121 10 6 390
-391 430 -450 93 -137 137 -266 167 -488 15 -115 15 -127 -1 -177 -19 -61 -90
-171 -234 -364 -118 -157 -198 -297 -223 -388 -29 -102 -38 -231 -49 -643 -5
-212 -14 -405 -20 -428 -6 -24 -46 -112 -90 -195 -132 -253 -244 -552 -310
-827 -17 -74 -43 -180 -56 -235 -38 -159 -127 -324 -282 -525 -80 -103 -385
-411 -501 -506 -109 -88 -174 -168 -246 -302 -131 -240 -160 -266 -378 -348
-145 -54 -170 -97 -100 -175 67 -75 306 -221 447 -273 101 -38 156 -73 311
-196 77 -61 172 -127 210 -146 63 -32 75 -35 125 -29 30 4 65 9 77 12 16 3 36
-9 82 -51 33 -30 72 -58 87 -62 15 -4 75 -3 133 1 58 5 138 9 176 9 l70 1 -1
-30 c-1 -16 -5 -56 -9 -87 -7 -52 -5 -62 18 -97 15 -22 36 -45 47 -51 18 -10
22 -7 31 19 13 37 17 38 46 7 30 -31 75 -39 189 -30 111 8 161 -6 213 -60 31
-32 32 -34 20 -80 -24 -98 4 -222 81 -349 l40 -66 0 -148 0 -149 33 -31 c76
-73 179 -102 383 -110 256 -10 294 6 294 119 0 76 -29 161 -159 472 -118 282
-160 412 -161 497 0 31 9 46 68 106 118 123 164 143 242 103 21 -11 45 -18 52
-15 7 3 25 29 41 58 30 58 69 87 117 87 42 0 76 -20 130 -74 50 -52 65 -56 74
-22 8 32 32 56 57 56 22 0 59 -34 59 -54 0 -8 -30 -49 -67 -93 -114 -134 -126
-191 -83 -372 25 -107 23 -150 -15 -270 -14 -42 -25 -81 -25 -88 0 -11 87 -50
94 -42 3 2 12 56 20 119 11 75 23 124 35 140 36 49 136 34 208 -33 54 -50 73
-84 73 -134 0 -44 -9 -58 -98 -163 -96 -112 -111 -156 -68 -208 l25 -29 -52
-50 c-63 -60 -112 -97 -195 -148 -118 -72 -141 -119 -82 -169 41 -34 82 -41
235 -40 219 2 364 28 493 89 70 33 78 35 155 30 69 -4 92 -2 142 17 l60 23 17
82 c26 129 22 125 140 121 85 -3 102 0 111 14 17 25 -8 63 -76 115 -32 25 -64
54 -72 66 -24 37 -88 382 -83 451 3 58 11 78 64 176 17 31 19 55 18 195 l-2
160 93 -192 c51 -106 104 -203 119 -217 25 -26 27 -26 181 -26 124 0 155 -3
155 -14 0 -51 -37 -204 -81 -331 -45 -133 -52 -162 -56 -255 -5 -97 -3 -107
17 -132 19 -25 28 -28 78 -28 88 0 198 58 311 164 82 78 94 108 102 261 8 145
29 223 83 303 33 50 40 52 117 37 31 -6 41 -3 72 25 20 17 57 63 82 100 l46
69 -29 93 c-42 134 -57 165 -106 222 -24 28 -61 89 -84 136 -46 97 -102 177
-189 271 -41 44 -67 82 -82 122 -28 77 -56 130 -105 202 -22 33 -55 89 -72
125 -18 36 -71 125 -118 199 -47 74 -89 150 -92 168 -3 18 -4 217 -1 441 5
462 2 426 112 1027 79 432 143 758 154 788 7 19 10 15 15 -23 41 -290 140
-962 192 -1300 106 -697 137 -835 195 -884 39 -33 57 -33 101 2 44 33 76 71
112 134 40 69 87 105 221 168 433 206 415 196 415 236 0 55 -100 220 -295 487
-50 68 -65 97 -65 123 0 20 23 83 57 156 80 171 82 210 19 333 -64 124 -185
293 -405 568 -103 128 -195 252 -204 274 -28 70 -45 152 -77 368 -82 553 -126
696 -419 1339 l-82 179 11 241 c14 340 9 316 158 706 95 248 118 384 102 619
-11 164 -38 296 -110 531 -121 395 -128 426 -123 491 4 43 1 75 -12 113 l-18
53 27 49 c15 27 52 78 82 114 77 90 119 170 175 329 26 75 64 179 85 231 37
97 54 200 40 255 -4 15 -28 50 -54 79 -27 28 -59 73 -73 99 -48 96 -176 187
-314 222 -62 16 -221 19 -265 6z m-1313 -1436 c6 -25 8 -47 4 -49 -3 -2 -47
-20 -98 -39 -133 -52 -150 -62 -238 -147 -44 -43 -100 -88 -125 -100 -25 -12
-54 -30 -64 -39 -19 -16 -19 -16 0 18 21 39 316 346 348 364 24 12 111 35 142
36 17 1 23 -8 31 -44z"/>
</g>
</svg>
